<svg xmlns="http://www.w3.org/2000/svg" width="300" height="342" viewBox="0 0 300 342">
<g>
<path d="M 137.17 260.94 C130.36,263.24 123.44,263.41 112.35,261.55 C106.28,260.54 104.44,259.72 100.10,256.08 C88.25,246.16 83.16,236.53 82.27,222.32 C81.78,214.53 81.49,213.70 76.10,204.83 C71.60,197.42 69.56,195.02 66.10,193.11 C55.39,187.21 46.12,173.70 44.08,161.05 C41.39,144.32 50.06,126.06 64.59,117.86 C70.77,114.37 71.04,114.08 75.12,106.41 C76.85,103.16 79.13,99.39 80.19,98.04 C81.40,96.50 81.90,94.75 81.54,93.32 C80.76,90.21 83.66,76.49 86.23,71.09 C88.52,66.29 100.47,53.00 102.50,53.00 C103.19,53.00 104.27,52.38 104.89,51.63 C106.03,50.26 108.19,49.72 119.50,48.00 C127.25,46.81 136.85,48.74 145.07,53.12 C150.95,56.25 151.41,56.33 162.31,56.11 C172.69,55.90 173.89,55.66 178.87,52.86 C186.17,48.76 195.23,46.96 203.22,48.02 C216.41,49.76 218.12,50.37 224.68,55.72 C235.33,64.40 240.87,75.56 240.96,88.50 C241.00,93.82 241.50,96.22 243.04,98.50 C244.15,100.15 246.62,104.43 248.53,108.00 C251.50,113.56 252.77,114.91 257.42,117.33 C266.49,122.07 277.20,136.11 278.64,145.18 C278.98,147.28 279.65,149.00 280.13,149.00 C280.61,149.00 281.00,151.70 281.00,155.00 C281.00,158.30 280.61,161.00 280.13,161.00 C279.65,161.00 279.01,162.57 278.69,164.50 C277.78,170.12 272.21,180.38 267.68,184.78 C265.38,187.02 261.12,190.40 258.20,192.30 C253.89,195.12 251.87,197.50 247.35,205.13 C242.08,214.02 241.76,214.97 241.01,223.56 C239.94,235.77 236.26,243.66 227.52,252.45 C223.81,256.17 219.86,259.20 218.27,259.52 C216.75,259.84 213.93,260.50 212.00,261.00 C201.84,263.62 190.28,262.19 180.14,257.07 C174.37,254.16 173.44,254.00 162.26,254.00 C151.40,254.00 150.18,254.19 146.87,256.44 C144.89,257.79 140.53,259.81 137.17,260.94 ZM 121.94 251.70 C127.12,253.58 129.97,254.00 135.50,253.71 C143.52,253.28 147.58,251.62 154.39,245.99 C160.46,240.98 163.85,240.78 168.82,245.15 C178.02,253.22 191.17,255.90 202.61,252.04 C223.88,244.85 237.27,229.69 237.12,212.98 C237.08,209.17 236.76,204.91 236.42,203.52 C235.47,199.76 238.13,196.47 243.18,195.13 C252.06,192.78 259.81,185.08 264.16,174.28 C266.22,169.17 266.49,166.88 266.46,154.50 C266.42,140.88 266.34,140.31 263.24,133.72 C259.35,125.44 253.67,120.01 243.74,115.09 L 236.50 111.50 L 236.84 101.50 C237.12,93.23 236.82,90.54 235.10,85.96 C232.60,79.33 224.62,69.99 219.29,67.47 C217.20,66.49 213.93,64.66 212.00,63.42 C210.07,62.18 206.48,60.58 204.00,59.88 C201.52,59.17 199.18,58.13 198.79,57.55 C198.38,56.95 194.49,56.52 189.79,56.54 C182.93,56.56 180.49,57.04 175.64,59.28 C172.41,60.77 168.23,63.35 166.35,65.00 C164.47,66.65 162.16,68.00 161.22,68.00 C160.27,67.99 157.07,65.79 154.09,63.09 C148.13,57.69 146.92,57.29 136.00,57.10 C127.14,56.95 121.81,58.43 110.95,64.09 C95.47,72.14 88.83,80.71 85.42,97.03 C83.04,108.48 81.06,112.05 74.29,117.20 C66.45,123.16 61.39,130.09 58.85,138.35 C57.02,144.29 56.81,146.89 57.25,157.85 C57.69,168.77 58.13,171.32 60.46,176.50 C64.79,186.14 73.94,194.14 83.22,196.37 C87.02,197.28 88.31,200.11 87.08,204.75 C84.90,212.92 85.90,219.98 90.52,228.98 C95.09,237.90 106.37,246.06 121.94,251.70 Z" fill="rgb(213,251,20)"/>
<path d="M 121.94 251.70 C106.37,246.06 95.09,237.90 90.52,228.98 C85.90,219.98 84.90,212.92 87.08,204.75 C88.31,200.11 87.02,197.28 83.22,196.37 C73.94,194.14 64.79,186.14 60.46,176.50 C58.92,173.09 58.21,170.82 57.78,166.56 C58.20,169.41 58.95,171.07 60.46,173.80 C64.16,180.54 69.73,185.57 76.88,188.66 C86.28,192.72 87.33,193.40 89.26,196.71 C90.93,199.56 91.00,200.53 89.93,205.97 C88.23,214.61 89.18,223.93 92.30,229.21 C96.65,236.56 104.81,243.83 113.50,248.07 C120.62,251.55 122.32,251.98 128.99,251.99 C137.78,252.00 143.63,249.54 151.80,242.39 C156.32,238.44 157.33,238.00 161.90,238.00 C166.06,238.00 167.79,238.59 171.42,241.25 C180.16,247.64 185.01,250.12 190.92,251.22 C205.66,253.96 221.65,245.37 229.27,230.60 C232.12,225.08 232.41,223.69 232.32,216.00 C232.26,211.32 232.06,205.65 231.88,203.39 C231.61,200.13 232.11,198.54 234.32,195.65 C235.84,193.65 238.31,191.71 239.79,191.34 C244.61,190.13 251.41,186.76 255.26,183.67 C259.61,180.18 264.58,171.01 266.33,164.07 C266.10,168.74 265.53,170.89 264.16,174.28 C259.81,185.08 252.06,192.78 243.18,195.13 C238.13,196.47 235.47,199.76 236.42,203.52 C236.76,204.91 237.08,209.17 237.12,212.98 C237.27,229.69 223.88,244.85 202.61,252.04 C191.17,255.90 178.02,253.22 168.82,245.15 C163.85,240.78 160.46,240.98 154.39,245.99 C147.58,251.62 143.52,253.28 135.50,253.71 C129.97,254.00 127.12,253.58 121.94,251.70 ZM 105.32 51.20 C105.16,51.34 105.02,51.48 104.89,51.63 C104.27,52.38 103.19,53.00 102.50,53.00 C100.47,53.00 88.52,66.29 86.23,71.09 C83.66,76.49 80.76,90.21 81.54,93.32 C81.90,94.75 81.40,96.50 80.19,98.04 C79.13,99.39 76.85,103.16 75.12,106.41 C71.04,114.08 70.77,114.37 64.59,117.86 C50.06,126.06 41.39,144.32 44.08,161.05 C46.12,173.70 55.39,187.21 66.10,193.11 C69.56,195.02 71.60,197.42 76.10,204.83 C81.49,213.70 81.78,214.53 82.27,222.32 C83.16,236.53 88.25,246.16 100.10,256.08 C100.13,256.11 100.17,256.14 100.21,256.18 C99.97,256.06 99.76,255.99 99.60,255.99 C97.32,255.98 88.95,247.68 84.69,241.22 C79.52,233.38 78.39,230.19 77.15,219.95 C75.78,208.53 71.28,200.74 63.87,196.94 C59.16,194.53 52.52,186.95 48.97,179.92 C37.42,157.10 42.79,128.69 61.19,115.22 C72.78,106.75 77.00,100.68 77.00,92.50 C77.00,87.24 79.30,78.38 82.13,72.78 C84.74,67.62 95.30,56.56 99.78,54.31 C101.47,53.46 103.74,52.18 105.32,51.20 ZM 137.17 260.94 C140.53,259.81 144.89,257.79 146.87,256.44 C150.18,254.19 151.40,254.00 162.26,254.00 C173.44,254.00 174.37,254.16 180.14,257.07 C190.28,262.19 201.84,263.62 212.00,261.00 C213.93,260.50 216.75,259.84 218.27,259.52 C219.86,259.20 223.81,256.17 227.52,252.45 C236.26,243.66 239.94,235.77 241.01,223.56 C241.76,214.97 242.08,214.02 247.35,205.13 C251.87,197.50 253.89,195.12 258.20,192.30 C261.12,190.40 265.38,187.02 267.68,184.78 C272.21,180.38 277.78,170.12 278.69,164.50 C279.01,162.57 279.65,161.00 280.13,161.00 C280.21,161.00 280.28,160.93 280.35,160.80 C278.36,177.15 271.34,189.15 258.93,197.48 C250.31,203.26 247.15,209.04 245.92,221.24 C244.33,236.99 233.41,252.12 217.50,260.61 L 210.50 264.34 L 198.00 264.35 C185.80,264.35 185.30,264.26 177.04,260.67 C166.31,256.02 158.23,255.62 151.68,259.43 C149.38,260.76 144.74,262.56 141.36,263.43 C133.98,265.31 122.20,265.37 116.00,263.54 C105.62,260.47 104.22,259.90 102.49,257.99 C102.48,257.98 102.46,257.96 102.45,257.94 C105.34,260.05 107.49,260.74 112.35,261.55 C123.44,263.41 130.36,263.24 137.17,260.94 ZM 280.63 150.09 C280.49,149.40 280.31,149.00 280.13,149.00 C279.65,149.00 278.98,147.28 278.64,145.18 C277.20,136.11 266.49,122.07 257.42,117.33 C252.77,114.91 251.50,113.56 248.53,108.00 C246.62,104.43 244.15,100.15 243.04,98.50 C241.50,96.22 241.00,93.82 240.96,88.50 C240.87,75.56 235.33,64.40 224.68,55.72 C218.12,50.37 216.41,49.76 203.22,48.02 C195.23,46.96 186.17,48.76 178.87,52.86 C173.89,55.66 172.69,55.90 162.31,56.11 C151.41,56.33 150.95,56.25 145.07,53.12 C136.85,48.74 127.25,46.81 119.50,48.00 C111.04,49.29 107.70,49.91 106.08,50.72 C106.12,50.69 106.17,50.66 106.21,50.63 C109.97,48.12 122.41,45.04 128.86,45.02 C135.63,45.00 145.21,47.45 150.55,50.58 C156.35,53.98 166.13,53.98 172.83,50.59 C184.74,44.55 195.12,43.71 209.22,47.62 C229.65,53.30 246.00,72.89 246.00,91.70 C246.00,98.83 250.44,106.83 256.83,111.23 C270.57,120.68 279.28,135.15 280.63,150.09 ZM 266.44 150.57 C264.33,133.62 255.94,123.65 240.14,118.92 C236.93,117.96 235.10,116.60 233.23,113.77 C230.70,109.95 230.70,109.88 232.01,101.44 C233.42,92.36 232.71,86.41 229.39,79.40 C227.93,76.33 223.32,70.64 220.58,68.18 C225.83,71.43 232.80,79.84 235.10,85.96 C236.82,90.54 237.12,93.23 236.84,101.50 L 236.50 111.50 L 243.74 115.09 C253.67,120.01 259.35,125.44 263.24,133.72 C266.01,139.61 266.37,140.69 266.44,150.57 ZM 212.10 63.48 C209.27,61.94 204.39,60.02 200.50,58.97 C187.41,55.44 178.79,57.27 168.53,65.78 C166.34,67.59 163.52,69.33 162.26,69.65 C158.87,70.50 154.80,68.41 152.26,64.50 C149.24,59.87 144.84,57.79 136.77,57.22 C135.88,57.15 135.03,57.11 134.20,57.09 C134.78,57.09 135.38,57.09 136.00,57.10 C146.92,57.29 148.13,57.69 154.09,63.09 C157.07,65.79 160.27,67.99 161.22,68.00 C162.16,68.00 164.47,66.65 166.35,65.00 C168.23,63.35 172.41,60.77 175.64,59.28 C180.49,57.04 182.93,56.56 189.79,56.54 C194.49,56.52 198.38,56.95 198.79,57.55 C199.18,58.13 201.52,59.17 204.00,59.88 C206.48,60.58 210.07,62.18 212.00,63.42 C212.03,63.44 212.06,63.46 212.10,63.48 ZM 123.90 58.51 C120.48,59.56 116.68,61.24 111.74,63.75 C104.08,67.65 98.55,71.60 94.49,76.43 C98.43,71.71 103.73,67.84 110.95,64.09 C116.23,61.34 120.19,59.58 123.90,58.51 ZM 57.06 150.48 C57.05,145.29 57.51,142.73 58.79,138.53 C57.56,142.60 57.09,145.38 57.06,150.48 ZM 217.14 66.39 C216.32,65.99 215.29,65.42 214.21,64.76 C215.16,65.31 216.18,65.88 217.14,66.39 ZM 63.53 128.43 C66.24,124.33 69.80,120.61 74.28,117.21 C69.81,120.60 66.24,124.33 63.53,128.43 Z" fill="rgb(227,253,103)"/>
<path d="M 148.00 265.61 C133.05,270.98 115.24,267.17 95.34,254.34 C82.67,246.17 72.00,228.57 72.00,215.85 C72.00,210.49 69.81,206.66 64.75,203.14 C50.26,193.06 42.00,175.32 42.00,154.27 C42.00,134.07 50.93,114.75 64.12,106.42 C69.43,103.07 70.83,100.52 72.46,91.20 C73.25,86.76 75.12,80.52 76.62,77.33 C80.25,69.67 93.86,55.79 99.50,54.01 C100.47,53.70 101.49,53.31 102.40,52.91 C101.49,53.42 100.57,53.91 99.78,54.31 C95.30,56.56 84.74,67.62 82.13,72.78 C79.30,78.38 77.00,87.24 77.00,92.50 C77.00,100.68 72.78,106.75 61.19,115.22 C42.79,128.69 37.42,157.10 48.97,179.92 C52.52,186.95 59.16,194.53 63.87,196.94 C71.28,200.74 75.78,208.53 77.15,219.95 C78.39,230.19 79.52,233.38 84.69,241.22 C88.95,247.68 97.32,255.98 99.60,255.99 C99.76,255.99 99.97,256.06 100.21,256.18 C101.03,256.86 101.76,257.44 102.45,257.94 C102.46,257.96 102.48,257.98 102.49,257.99 C104.22,259.90 105.62,260.47 116.00,263.54 C122.20,265.37 133.98,265.31 141.36,263.43 C144.74,262.56 149.38,260.76 151.68,259.43 C158.23,255.62 166.31,256.02 177.04,260.67 C185.30,264.26 185.80,264.35 198.00,264.35 L 209.35 264.34 C208.86,264.59 208.35,264.84 207.83,265.09 C204.53,266.72 192.61,268.24 187.11,267.74 C183.97,267.45 177.44,265.57 172.28,263.45 L 163.05 259.68 L 158.78 261.48 C156.42,262.47 151.57,264.33 148.00,265.61 ZM 120.50 250.35 C121.60,250.58 124.73,250.82 127.45,250.88 C133.12,251.02 137.22,248.74 145.50,240.87 C151.54,235.12 153.58,234.29 162.09,234.12 C167.60,234.01 169.24,234.38 172.09,236.42 C183.82,244.78 197.73,250.50 203.71,249.42 C213.29,247.67 223.70,239.07 226.19,230.84 C227.00,228.15 227.50,221.19 227.50,212.50 C227.50,199.47 227.67,198.22 229.91,194.50 C233.76,188.12 234.88,187.20 241.37,185.04 C251.64,181.61 263.24,171.07 264.68,163.85 C264.99,162.28 265.64,161.00 266.12,161.00 C266.24,161.00 266.34,160.96 266.43,160.87 C266.41,162.06 266.37,163.12 266.33,164.07 C264.58,171.01 259.61,180.18 255.26,183.67 C251.41,186.76 244.61,190.13 239.79,191.34 C238.31,191.71 235.84,193.65 234.32,195.65 C232.11,198.54 231.61,200.13 231.88,203.39 C232.06,205.65 232.26,211.32 232.32,216.00 C232.41,223.69 232.12,225.08 229.27,230.60 C221.65,245.37 205.66,253.96 190.92,251.22 C185.01,250.12 180.16,247.64 171.42,241.25 C167.79,238.59 166.06,238.00 161.90,238.00 C157.33,238.00 156.32,238.44 151.80,242.39 C143.63,249.54 137.78,252.00 128.99,251.99 C123.37,251.98 121.28,251.68 116.50,249.50 C117.70,249.75 119.45,250.12 120.50,250.35 ZM 280.50 148.89 C278.81,134.38 270.20,120.43 256.83,111.23 C250.44,106.83 246.00,98.83 246.00,91.70 C246.00,72.89 229.65,53.30 209.22,47.62 C195.12,43.71 184.74,44.55 172.83,50.59 C166.13,53.98 156.35,53.98 150.55,50.58 C145.21,47.45 135.63,45.00 128.86,45.02 C122.41,45.04 109.97,48.12 106.21,50.63 C106.17,50.66 106.12,50.69 106.08,50.72 C105.92,50.80 105.77,50.88 105.64,50.96 C116.52,42.49 139.74,40.21 152.59,46.50 C159.24,49.76 163.50,49.55 172.96,45.51 C178.28,43.24 180.91,42.75 187.96,42.72 C199.15,42.67 205.47,44.28 217.00,50.12 C237.41,60.47 247.34,72.58 250.57,91.04 C251.94,98.92 254.26,105.00 255.89,105.00 C257.85,105.00 267.20,113.71 270.81,118.89 C276.36,126.87 279.67,137.43 280.50,148.89 ZM 266.44 150.57 C266.44,151.19 266.45,151.85 266.45,152.55 C266.20,151.02 265.86,149.41 265.44,147.79 C262.22,135.33 255.07,128.12 241.95,124.07 C234.85,121.87 231.50,119.05 228.07,112.41 C226.17,108.72 226.06,107.63 226.96,101.41 C229.32,85.11 227.86,76.86 221.54,70.79 C217.74,67.13 213.67,64.25 209.37,62.15 C210.39,62.61 211.32,63.06 212.10,63.48 C212.70,63.87 213.43,64.31 214.21,64.76 C215.29,65.42 216.32,65.99 217.14,66.39 C217.92,66.80 218.66,67.17 219.29,67.47 C219.70,67.67 220.14,67.91 220.58,68.18 C223.32,70.64 227.93,76.33 229.39,79.40 C232.71,86.41 233.42,92.36 232.01,101.44 C230.70,109.88 230.70,109.95 233.23,113.77 C235.10,116.60 236.93,117.96 240.14,118.92 C255.94,123.65 264.33,133.62 266.44,150.57 ZM 221.61 258.20 C235.27,249.43 244.47,235.59 245.92,221.24 C247.15,209.04 250.31,203.26 258.93,197.48 C271.34,189.15 278.36,177.15 280.35,160.80 C280.41,160.69 280.47,160.53 280.53,160.34 C280.18,165.51 279.35,170.75 278.02,175.91 C275.15,187.08 265.43,199.97 256.17,204.92 C253.30,206.45 251.00,211.67 250.99,216.72 C250.95,226.09 245.63,236.99 236.17,247.07 C231.23,252.34 229.59,254.01 221.61,258.20 ZM 57.06 150.48 C57.09,145.57 57.52,142.81 58.66,138.99 C57.38,143.73 56.92,148.99 57.21,154.96 C57.56,162.22 58.24,165.86 59.86,169.22 C63.45,176.62 70.28,181.58 86.26,188.38 C89.01,189.55 90.59,191.17 92.19,194.44 C94.33,198.86 94.34,199.01 92.67,207.71 C90.55,218.80 90.57,219.33 93.36,226.13 C96.07,232.70 102.85,241.14 107.93,244.24 C109.89,245.44 112.09,247.00 112.82,247.71 C112.84,247.73 112.85,247.74 112.87,247.76 C104.42,243.47 96.55,236.39 92.30,229.21 C89.18,223.93 88.23,214.61 89.93,205.97 C91.00,200.53 90.93,199.56 89.26,196.71 C87.33,193.40 86.28,192.72 76.88,188.66 C69.73,185.57 64.16,180.54 60.46,173.80 C58.95,171.07 58.20,169.41 57.78,166.56 C57.55,164.34 57.40,161.59 57.25,157.85 C57.13,154.85 57.06,152.47 57.06,150.48 ZM 201.77 59.33 C198.38,58.45 194.87,58.00 191.25,58.00 C185.02,58.00 174.99,62.22 171.00,66.51 C169.62,67.98 166.80,70.07 164.73,71.13 C161.54,72.76 160.33,72.90 156.98,72.00 C153.76,71.13 152.36,69.91 149.55,65.51 C146.56,60.83 143.97,58.51 140.02,57.56 C146.07,58.44 149.68,60.53 152.26,64.50 C154.80,68.41 158.87,70.50 162.26,69.65 C163.52,69.33 166.34,67.59 168.53,65.78 C178.79,57.27 187.41,55.44 200.50,58.97 C200.91,59.08 201.34,59.20 201.77,59.33 ZM 123.90 58.51 L 123.91 58.51 Z" fill="rgb(241,253,181)"/>
<path d="M 0.00 171.00 L 0.00 0.00 L 150.00 0.00 L 300.00 0.00 L 300.00 171.00 L 300.00 342.00 L 150.00 342.00 L 0.00 342.00 L 0.00 171.00 ZM 148.00 265.61 C151.57,264.33 156.42,262.47 158.78,261.48 L 163.05 259.68 L 172.28 263.45 C177.44,265.57 183.97,267.45 187.11,267.74 C192.61,268.24 204.53,266.72 207.83,265.09 C228.79,254.77 229.20,254.52 236.17,247.07 C245.63,236.99 250.95,226.09 250.99,216.72 C251.00,211.67 253.30,206.45 256.17,204.92 C265.43,199.97 275.15,187.08 278.02,175.91 C283.39,155.04 280.60,132.95 270.81,118.89 C267.20,113.71 257.85,105.00 255.89,105.00 C254.26,105.00 251.94,98.92 250.57,91.04 C247.34,72.58 237.41,60.47 217.00,50.12 C205.47,44.28 199.15,42.67 187.96,42.72 C180.91,42.75 178.28,43.24 172.96,45.51 C163.50,49.55 159.24,49.76 152.59,46.50 C139.48,40.08 115.58,42.59 105.00,51.49 C104.18,52.18 101.70,53.32 99.50,54.01 C93.86,55.79 80.25,69.67 76.62,77.33 C75.12,80.52 73.25,86.76 72.46,91.20 C70.83,100.52 69.43,103.07 64.12,106.42 C50.93,114.75 42.00,134.07 42.00,154.27 C42.00,175.32 50.26,193.06 64.75,203.14 C69.81,206.66 72.00,210.49 72.00,215.85 C72.00,228.57 82.67,246.17 95.34,254.34 C115.24,267.17 133.05,270.98 148.00,265.61 ZM 120.50 250.35 C119.40,250.11 117.52,249.71 116.32,249.46 C115.12,249.21 113.55,248.42 112.82,247.71 C112.09,247.00 109.89,245.44 107.93,244.24 C102.85,241.14 96.07,232.70 93.36,226.13 C90.57,219.33 90.55,218.80 92.67,207.71 C94.34,199.01 94.33,198.86 92.19,194.44 C90.59,191.17 89.01,189.55 86.26,188.38 C70.28,181.58 63.45,176.62 59.86,169.22 C58.24,165.86 57.56,162.22 57.21,154.96 C56.40,138.15 61.47,126.94 74.29,117.20 C81.06,112.05 83.04,108.48 85.42,97.03 C88.83,80.71 95.47,72.14 110.95,64.09 C121.10,58.81 126.98,57.02 134.30,57.01 C141.91,57.00 145.32,58.90 149.55,65.51 C152.36,69.91 153.76,71.13 156.98,72.00 C160.33,72.90 161.54,72.76 164.73,71.13 C166.80,70.07 169.62,67.98 171.00,66.51 C174.99,62.22 185.02,58.00 191.25,58.00 C202.50,58.00 212.75,62.32 221.54,70.79 C227.86,76.86 229.32,85.11 226.96,101.41 C226.06,107.63 226.17,108.72 228.07,112.41 C231.50,119.05 234.85,121.87 241.95,124.07 C255.07,128.12 262.22,135.33 265.44,147.79 C267.15,154.38 267.49,161.00 266.12,161.00 C265.64,161.00 264.99,162.28 264.68,163.85 C263.24,171.07 251.64,181.61 241.37,185.04 C234.88,187.20 233.76,188.12 229.91,194.50 C227.67,198.22 227.50,199.47 227.50,212.50 C227.50,221.19 227.00,228.15 226.19,230.84 C223.70,239.07 213.29,247.67 203.71,249.42 C197.73,250.50 183.82,244.78 172.09,236.42 C169.24,234.38 167.60,234.01 162.09,234.12 C153.58,234.29 151.54,235.12 145.50,240.87 C137.22,248.74 133.12,251.02 127.45,250.88 C124.73,250.82 121.60,250.58 120.50,250.35 Z" fill="rgb(254,254,254)"/>
</g>
</svg>